<svg xmlns="http://www.w3.org/2000/svg" width="19" height="21.715" viewBox="0 0 19 21.715">
  <path id="bell-regular" d="M18.634,15.365c-.819-.88-2.353-2.2-2.353-6.544a6.7,6.7,0,0,0-5.426-6.58V1.357a1.356,1.356,0,1,0-2.713,0v.884a6.7,6.7,0,0,0-5.426,6.58c0,4.339-1.533,5.663-2.353,6.544A1.325,1.325,0,0,0,0,16.286a1.358,1.358,0,0,0,1.361,1.357H17.638A1.358,1.358,0,0,0,19,16.286a1.324,1.324,0,0,0-.365-.921Zm-15.771.242c.9-1.186,1.884-3.152,1.889-6.761,0-.008,0-.016,0-.025a4.75,4.75,0,0,1,9.5,0c0,.008,0,.016,0,.025,0,3.609.989,5.575,1.889,6.761ZM9.5,21.714A2.714,2.714,0,0,0,12.212,19H6.786A2.714,2.714,0,0,0,9.5,21.714Z" transform="translate(0.001)" fill="#bac3d3"/>
</svg>
